<?xml version="1.0" encoding="UTF-8"?>
<!DOCTYPE svg PUBLIC "-//W3C//DTD SVG 1.1//EN" "http://www.w3.org/Graphics/SVG/1.1/DTD/svg11.dtd">
<svg xmlns="http://www.w3.org/2000/svg" version="1.1" width="512px" height="512px" style="shape-rendering:geometricPrecision; text-rendering:geometricPrecision; image-rendering:optimizeQuality; fill-rule:evenodd; clip-rule:evenodd" xmlns:xlink="http://www.w3.org/1999/xlink">
<g><path style="opacity:0.994" fill="#323641" d="M 232.5,-0.5 C 247.833,-0.5 263.167,-0.5 278.5,-0.5C 368.144,10.3879 435.644,54.7213 481,132.5C 497.695,163.971 507.861,197.304 511.5,232.5C 511.5,247.833 511.5,263.167 511.5,278.5C 500.612,368.144 456.279,435.644 378.5,481C 347.029,497.695 313.696,507.861 278.5,511.5C 263.167,511.5 247.833,511.5 232.5,511.5C 142.856,500.612 75.3562,456.279 30,378.5C 13.3053,347.029 3.1386,313.696 -0.5,278.5C -0.5,263.167 -0.5,247.833 -0.5,232.5C 10.3875,142.857 54.7208,75.3573 132.5,30C 163.971,13.3053 197.304,3.1386 232.5,-0.5 Z"/></g>
<g><path style="opacity:1" fill="#fdfdfd" d="M 215.5,91.5 C 239.997,90.3367 264.663,90.1701 289.5,91C 300.999,94.1585 309.499,100.992 315,111.5C 355.6,183.091 396.6,254.425 438,325.5C 444.08,336.363 445.08,347.697 441,359.5C 429.333,379.833 417.667,400.167 406,420.5C 342.473,310.77 278.973,201.104 215.5,91.5 Z"/></g>
<g><path style="opacity:1" fill="#fefefe" d="M 267.5,289.5 C 211.669,290.499 155.669,290.832 99.5,290.5C 127.138,241.228 155.304,192.228 184,143.5C 212.11,192.059 239.943,240.725 267.5,289.5 Z"/></g>
<g><path style="opacity:1" fill="#cbcbcb" d="M 267.5,289.5 C 268.043,289.56 268.376,289.893 268.5,290.5C 240.167,290.833 211.833,291.167 183.5,291.5C 154.762,291.504 126.762,291.171 99.5,290.5C 155.669,290.832 211.669,290.499 267.5,289.5 Z"/></g>
<g><path style="opacity:1" fill="#555555" d="M 300.5,345.5 C 222.998,345.167 145.665,345.501 68.5,346.5C 67.9569,346.44 67.6236,346.107 67.5,345.5C 145.332,344.168 222.999,344.168 300.5,345.5 Z"/></g>
<g><path style="opacity:1" fill="#fdfdfd" d="M 300.5,345.5 C 315.371,370.579 329.704,395.913 343.5,421.5C 270.13,421.984 196.797,421.484 123.5,420C 115.333,417.495 108.5,412.995 103,406.5C 91.2355,386.636 79.7355,366.636 68.5,346.5C 145.665,345.501 222.998,345.167 300.5,345.5 Z"/></g>
</svg>
