<svg fill="#FFFFFF" xmlns="http://www.w3.org/2000/svg"  viewBox="0 0 50 50" width="50px" height="50px"><path d="M 25 2 C 12.309288 2 2 12.309297 2 25 C 2 37.690703 12.309288 48 25 48 C 37.690712 48 48 37.690703 48 25 C 48 12.309297 37.690712 2 25 2 z M 25 4 C 36.609833 4 46 13.390175 46 25 C 46 36.609825 36.609833 46 25 46 C 13.390167 46 4 36.609825 4 25 C 4 13.390175 13.390167 4 25 4 z M 25 8 C 21.14 8 18 10.968234 18 14.615234 C 18 18.161234 21.284422 22.183625 24.357422 24.765625 C 24.543422 24.921625 24.771 24.998047 25 24.998047 C 25.229 24.998047 25.457578 24.920672 25.642578 24.763672 C 28.715578 22.181672 32 18.161234 32 14.615234 C 32 10.969234 28.859 8.001 25 8 z M 15.429688 25.007812 C 13.863723 25.048535 12.407391 25.347219 11.244141 26.011719 C 9.7551406 26.861719 8.6874219 28.265937 8.2324219 29.960938 C 7.7494219 31.760937 8.0261875 33.743391 8.9921875 35.400391 C 10.330187 37.696391 12.721094 38.998047 15.121094 38.998047 C 16.214094 38.998047 17.309594 38.728203 18.308594 38.158203 C 21.414594 36.381203 23.276375 31.519547 23.984375 27.560547 C 24.070375 27.081547 23.798844 26.608359 23.339844 26.443359 C 20.957344 25.587109 18.039629 24.939941 15.429688 25.007812 z M 34.572266 25.007812 C 31.962529 24.939941 29.045234 25.587109 26.662109 26.443359 C 26.203109 26.608359 25.929625 27.081547 26.015625 27.560547 C 26.722625 31.519547 28.585406 36.383203 31.691406 38.158203 C 32.689406 38.728203 33.784906 38.998047 34.878906 38.998047 C 37.277906 38.998047 39.668766 37.697391 41.009766 35.400391 C 41.975766 33.743391 42.251531 31.761937 41.769531 29.960938 C 41.315531 28.264938 40.244859 26.862719 38.755859 26.011719 C 37.592609 25.347219 36.138107 25.048535 34.572266 25.007812 z"/></svg>