	
	
		<svg version="1.1" id="Calque_1" xmlns="http://www.w3.org/2000/svg" xmlns:xlink="http://www.w3.org/1999/xlink" x="0px" y="0px"
			 viewBox="0 0 125.71 135.85" style="enable-background:new 0 0 125.71 135.85;" xml:space="preserve" fill="white"
		stroke="none">
		<path d="M83.47,49.53c-2.37,1.59-9.94,7-9.94,7l-0.19,0.11c-16.03,15.8-32.16,31.69-48.29,47.58c1.73,1.66,3.36,3.23,5.07,4.89
			c16.02-15.79,32.15-31.68,48.32-47.62c-0.01-0.01-0.02-0.02-0.03-0.03l6.51-11.19C84.92,50.27,85.84,47.94,83.47,49.53z"/>
		<path d="M53.63,38.85c0,0,0.14,8.53,0,9.72c12.91,2.64,21.24,0,21.24,0l11.66-3.54c0,0,4.72-1.74,3.17,3.54
			c-2.36,5.55-3.17,8.61-3.17,8.61s-2.23,5.48,0,21.65h9.58c0,0-4.68-25.89,0-34.84c4.86-9.3-5-5.69-5-5.69S70.29,45.1,53.63,38.85z"
			/>
		</svg>
	

